<?xml version="1.0" standalone="no"?>
<!DOCTYPE svg PUBLIC "-//W3C//DTD SVG 20010904//EN"
 "http://www.w3.org/TR/2001/REC-SVG-20010904/DTD/svg10.dtd">
<svg version="1.0" xmlns="http://www.w3.org/2000/svg"
 width="685.000000pt" height="364.000000pt" viewBox="0 0 685.000000 364.000000"
 preserveAspectRatio="xMidYMid meet">

<g transform="translate(0.000000,364.000000) scale(0.100000,-0.100000)"
fill="#000000" stroke="none">
<path d="M1307 3410 c-142 -14 -358 -64 -467 -110 -72 -30 -110 -55 -110 -71
0 -11 59 7 79 24 28 23 125 65 192 81 213 52 359 66 734 68 80 0 263 -16 300
-26 53 -15 141 -48 149 -56 6 -6 17 -10 26 -10 54 0 247 -183 350 -333 55 -79
102 -166 98 -179 -2 -6 -30 22 -62 63 -177 227 -325 355 -487 424 -121 50
-199 68 -384 85 -149 14 -154 14 -340 1 -160 -12 -317 -48 -415 -94 -195 -93
-433 -306 -509 -455 -34 -66 -70 -171 -87 -252 -17 -81 -14 -145 11 -204 18
-42 8 -46 -24 -12 -26 27 -40 80 -41 147 0 56 40 201 79 284 55 118 163 278
241 354 41 41 65 69 54 63 -42 -22 -151 -138 -200 -212 -155 -232 -213 -412
-185 -565 12 -67 32 -99 81 -133 38 -26 63 -16 43 17 -6 10 -15 35 -18 55 -4
20 -11 39 -16 42 -5 3 -9 42 -9 86 0 67 6 100 36 187 47 137 65 171 135 257
66 81 141 151 202 190 23 14 66 41 95 59 29 18 59 40 65 47 32 39 261 101 432
118 265 25 580 -5 685 -65 14 -8 21 -15 15 -16 -30 -6 -75 -10 -220 -17 -88
-5 -189 -16 -225 -25 -66 -16 -81 -19 -290 -59 -204 -39 -425 -153 -565 -293
-104 -104 -186 -223 -206 -300 -4 -16 -17 -64 -29 -105 -20 -71 -20 -140 -1
-140 4 0 13 24 20 53 19 85 165 294 279 400 127 118 306 223 500 293 104 38
237 65 284 57 17 -2 49 2 72 10 127 46 405 47 544 1 41 -13 79 -24 84 -24 31
0 166 -142 305 -321 59 -76 133 -213 133 -246 0 -23 15 -39 24 -25 7 11 -21
138 -45 202 -54 145 -139 274 -314 474 -65 75 -169 150 -198 142 -10 -2 -59 9
-110 25 -51 16 -117 32 -147 35 -90 10 -548 13 -643 4z m876 -195 c64 -30 87
-52 41 -40 -54 13 -319 39 -332 32 -4 -3 -40 -8 -81 -11 -40 -4 -92 -13 -115
-21 -22 -7 -84 -15 -137 -18 -122 -7 -259 -51 -439 -142 -149 -76 -258 -154
-350 -251 -65 -69 -150 -173 -184 -227 -24 -39 -31 -27 -17 30 17 65 110 203
195 289 98 99 190 156 397 248 53 23 134 42 304 71 83 14 164 30 180 36 17 5
102 15 190 20 88 6 162 12 164 15 12 12 134 -9 184 -31z"/>
<path d="M3394 2863 c-46 -26 -79 -55 -93 -82 -24 -44 8 -151 44 -151 18 0 18
2 4 34 -10 20 -9 30 5 51 21 33 63 34 71 3 13 -51 9 -438 -4 -438 -5 0 -35 38
-67 85 -55 83 -157 206 -176 214 -12 4 -169 -48 -183 -61 -6 -5 2 -20 23 -39
l32 -30 0 -133 c0 -135 -6 -182 -41 -341 -28 -124 -51 -205 -61 -211 -4 -3 -8
-14 -8 -26 0 -15 4 -18 18 -13 9 4 57 8 107 10 91 4 108 12 84 41 -17 21 -24
276 -10 403 14 127 20 151 36 151 7 0 46 -33 87 -73 85 -85 168 -230 168 -295
0 -55 -18 -111 -41 -125 -19 -12 -25 -32 -11 -40 11 -6 237 9 250 17 9 5 4 16
-17 36 -16 16 -31 44 -35 62 -20 107 -10 695 14 779 18 65 -18 132 -92 170
-46 24 -65 24 -104 2z m88 -22 c59 -23 113 -112 85 -140 -13 -13 -23 -299 -21
-589 1 -185 4 -226 18 -247 9 -13 16 -27 16 -30 0 -3 -36 -5 -80 -5 l-80 0 20
50 c11 28 20 64 20 81 0 83 -81 222 -209 359 -56 59 -73 72 -83 62 -6 -6 -20
-12 -29 -12 -15 0 -18 -16 -26 -107 -4 -60 -8 -194 -8 -300 l0 -191 -45 -7
c-25 -3 -54 -9 -64 -12 -16 -4 -18 -2 -12 18 4 13 24 103 46 200 33 147 40
203 46 334 6 151 5 157 -15 179 -17 18 -19 25 -9 34 18 15 105 35 122 29 31
-12 217 -267 246 -337 28 -67 33 -26 34 258 1 241 -1 284 -14 292 -24 15 -55
12 -83 -10 -33 -26 -37 -25 -37 6 0 39 62 94 105 94 19 0 44 -4 57 -9z"/>
<path d="M4035 2868 c-148 -4 -280 -13 -293 -18 -22 -10 -23 -13 -15 -68 4
-31 6 -76 5 -99 -1 -23 3 -45 8 -48 6 -4 33 10 60 29 54 39 69 42 135 25 50
-13 55 -26 44 -114 -4 -28 -10 -113 -14 -190 -24 -495 -21 -464 -52 -497 -15
-16 -43 -38 -60 -50 -47 -28 -42 -41 15 -34 26 3 114 8 197 11 153 5 171 10
142 43 -8 9 -25 37 -37 62 -34 67 -46 333 -24 560 8 91 19 180 24 199 11 41 6
51 -15 30 -25 -25 -35 -122 -42 -404 -6 -278 -1 -339 34 -412 10 -21 12 -38 6
-44 -10 -10 -230 -15 -240 -5 -4 3 3 16 14 29 40 43 44 65 49 240 2 95 9 257
14 360 13 222 9 237 -58 251 -38 8 -51 5 -102 -19 -33 -16 -62 -27 -64 -24 -2
2 -6 36 -7 74 l-4 70 55 7 c92 11 483 22 523 14 36 -7 37 -8 37 -51 0 -24 4
-55 10 -69 11 -30 13 -29 -46 -15 -52 14 -134 -4 -134 -28 0 -11 7 -13 28 -9
67 15 111 9 153 -18 55 -37 66 -24 39 44 -11 29 -22 77 -24 107 -3 61 -14 73
-61 71 -16 0 -151 -5 -300 -10z"/>
<path d="M2262 2848 c-7 -7 -12 -16 -12 -20 0 -4 -12 -32 -26 -61 -14 -28 -32
-74 -41 -102 -21 -68 -47 -131 -170 -400 -57 -126 -120 -266 -140 -310 -48
-105 -113 -225 -123 -225 -12 0 -90 234 -90 272 0 9 -11 53 -24 99 -13 46 -40
145 -61 219 -20 74 -50 178 -66 230 -16 53 -29 102 -29 110 -1 24 -38 100 -50
100 -5 0 -10 -11 -10 -24 0 -43 -138 -195 -301 -332 -26 -21 -70 -59 -99 -83
-71 -60 -90 -94 -90 -162 0 -31 5 -70 11 -88 15 -41 81 -81 137 -81 69 0 142
38 142 74 0 3 -23 6 -50 6 -46 0 -52 3 -69 31 -18 29 -18 56 -1 69 4 3 23 30
42 60 19 30 47 68 62 83 14 15 26 32 26 36 0 11 31 23 39 15 10 -10 1 -243
-15 -353 -8 -58 -14 -129 -14 -159 0 -88 -48 -329 -82 -410 -17 -41 -48 -94
-70 -119 -21 -25 -37 -50 -35 -57 2 -7 48 -14 123 -18 65 -4 129 -9 141 -11
13 -2 27 1 32 7 14 18 23 199 37 776 5 246 8 314 13 353 2 18 21 4 27 -20 3
-16 12 -46 19 -68 17 -52 42 -166 51 -230 3 -27 15 -86 26 -130 36 -141 60
-271 77 -415 5 -47 16 -103 23 -125 11 -34 17 -40 42 -40 26 0 32 7 63 80 59
135 121 257 168 330 25 39 53 86 61 105 9 19 35 78 59 130 24 52 56 128 72
168 15 40 38 85 51 100 l23 27 -6 -95 c-12 -186 -26 -477 -29 -605 -2 -71 -8
-184 -14 -250 -6 -66 -8 -123 -4 -127 10 -10 190 -12 225 -3 27 7 34 23 19 40
-20 23 -41 137 -47 255 -3 46 -3 339 0 1050 0 95 -7 246 -15 308 -1 6 -17 1
-28 -10z m17 -405 c-3 -562 2 -1054 11 -1102 4 -25 6 -49 3 -54 -3 -5 3 -17
13 -28 27 -30 7 -35 -92 -24 l-87 9 7 126 c4 69 9 179 11 245 10 300 16 431
25 498 15 121 20 216 10 222 -10 6 -80 -81 -80 -99 0 -6 -8 -27 -19 -46 -10
-19 -22 -46 -26 -60 -17 -54 -149 -318 -215 -430 -39 -66 -84 -154 -101 -197
-35 -86 -66 -136 -79 -128 -15 9 -30 79 -45 203 -8 65 -24 155 -35 202 -38
159 -50 215 -70 328 -11 62 -27 132 -34 155 -8 23 -22 74 -31 113 -20 84 -30
103 -44 89 -21 -21 -30 -115 -35 -375 -12 -510 -22 -764 -32 -802 -6 -20 -32
-22 -157 -12 -79 7 -94 18 -60 45 31 26 82 158 107 276 34 166 63 453 68 678
3 100 1 120 -12 123 -33 6 -192 -176 -214 -246 -11 -33 17 -87 53 -101 42 -18
39 -28 -11 -33 -50 -6 -109 19 -133 55 -8 13 -18 44 -21 70 -9 62 25 120 114
190 129 103 231 200 329 311 23 26 44 43 47 38 3 -5 9 -26 14 -48 5 -21 26
-93 45 -159 60 -203 109 -377 124 -440 8 -33 23 -94 34 -135 55 -205 64 -233
80 -228 20 7 111 180 199 378 18 41 55 122 82 179 27 57 67 147 89 200 22 53
44 105 49 116 6 11 23 57 40 103 16 45 37 96 46 114 14 27 18 29 26 15 5 -9 8
-155 7 -334z"/>
<path d="M4621 2700 c-7 -4 -22 -5 -32 -3 -39 11 -65 -5 -77 -46 -14 -45 -7
-71 17 -71 36 0 52 -154 32 -313 -6 -44 -12 -86 -15 -95 -3 -10 -8 -44 -11
-77 -3 -33 -13 -82 -22 -110 -39 -116 -167 -272 -267 -328 -82 -45 -215 -72
-231 -46 -11 16 3 57 27 79 31 29 15 36 -50 22 -94 -20 -147 -73 -147 -147 0
-52 37 -97 92 -116 34 -11 138 -7 178 6 59 20 152 60 166 72 8 7 19 13 23 13
16 0 126 89 192 155 108 110 148 207 205 501 5 27 14 90 19 140 19 181 31 249
50 264 9 8 22 30 28 48 11 31 10 33 -16 43 -35 13 -145 20 -161 9z m146 -47
c4 -10 -4 -25 -20 -39 -18 -15 -27 -33 -27 -52 0 -107 -68 -495 -111 -632 -37
-118 -130 -245 -229 -314 -67 -47 -205 -122 -245 -134 -182 -51 -311 20 -250
138 25 48 129 98 110 53 -29 -69 -13 -93 61 -93 53 0 62 3 159 43 70 30 174
115 230 189 77 103 108 177 119 283 3 33 10 94 15 135 11 85 13 250 3 325 -6
42 -11 51 -29 53 -28 4 -31 36 -6 51 9 5 61 9 116 9 80 0 99 -2 104 -15z"/>
<path d="M5430 2656 c0 -13 9 -35 20 -49 14 -18 23 -52 31 -123 6 -54 12 -101
14 -104 1 -3 -1 -32 -6 -65 -4 -33 -13 -98 -19 -145 -21 -159 -51 -237 -105
-269 -49 -29 -44 -55 10 -59 22 -1 76 -7 121 -12 89 -11 144 -5 144 17 0 7 -8
26 -17 40 -15 23 -17 50 -15 197 3 200 16 353 38 425 13 45 22 56 65 83 38 23
49 35 47 52 -4 28 -34 33 -195 35 l-133 1 0 -24z m278 -11 c24 -6 31 -25 8
-25 -25 0 -73 -49 -91 -92 -36 -89 -64 -604 -36 -657 15 -27 1 -33 -51 -21
-24 5 -63 10 -88 10 -25 0 -52 5 -60 10 -13 8 -11 13 11 32 52 46 58 63 104
333 17 101 20 300 5 310 -5 3 -10 15 -10 26 0 11 -7 31 -16 44 -9 13 -14 28
-11 32 5 8 195 6 235 -2z"/>
<path d="M5033 2583 c-7 -2 -13 -13 -13 -24 0 -10 -4 -19 -8 -19 -14 0 -108
-94 -120 -120 -90 -198 -102 -277 -54 -365 64 -117 211 -156 342 -90 72 37
104 71 135 145 39 95 45 215 15 294 -27 71 -83 137 -101 119 -9 -9 -5 -18 16
-40 103 -107 96 -358 -13 -461 -81 -75 -247 -84 -320 -18 -96 86 -96 208 -1
399 59 117 177 177 262 132 27 -14 57 -11 57 5 0 5 -15 18 -34 29 -24 15 -49
21 -92 20 -33 0 -65 -3 -71 -6z"/>
<path d="M5910 2530 c-48 -23 -116 -82 -131 -115 -5 -11 -13 -27 -18 -35 -17
-30 -41 -116 -42 -155 -1 -22 4 -72 10 -112 22 -129 91 -203 213 -229 118 -25
226 -15 326 32 100 46 148 139 131 255 -15 113 -79 203 -79 113 0 -22 -12 -57
-31 -90 -17 -30 -30 -66 -29 -82 4 -55 -1 -72 -27 -102 -25 -28 -36 -32 -107
-39 -101 -9 -160 0 -191 29 -31 29 -32 67 -4 114 31 53 78 78 153 80 79 3 119
25 169 96 66 94 47 169 -57 222 -49 25 -74 31 -150 34 -78 4 -98 2 -136 -16z
m208 -9 c9 -6 39 -20 65 -33 93 -43 103 -123 29 -213 -36 -44 -60 -54 -125
-55 -70 0 -123 -25 -166 -77 -60 -73 -59 -132 2 -177 24 -18 43 -21 135 -21
87 0 114 4 147 20 52 26 85 76 85 129 1 46 39 131 60 131 18 0 30 -57 23 -104
-8 -57 -50 -138 -86 -164 -80 -61 -227 -80 -342 -46 -128 38 -170 89 -195 235
-10 62 -9 82 6 140 20 83 32 106 78 160 52 61 106 84 194 84 40 0 80 -4 90 -9z"/>
<path d="M6009 2443 c-28 -27 -41 -49 -46 -75 -5 -33 -2 -41 28 -69 31 -29 37
-31 92 -27 49 4 63 9 89 36 25 24 32 40 31 67 -2 67 -45 105 -119 105 -26 0
-44 -9 -75 -37z m136 -9 c62 -67 -7 -166 -88 -130 -18 8 -40 17 -51 20 -29 10
-15 74 24 109 40 36 83 36 115 1z"/>
<path d="M2685 2476 c-38 -19 -84 -48 -102 -65 -70 -68 -140 -273 -129 -379
11 -119 117 -223 237 -235 56 -6 146 27 191 70 111 105 143 410 58 549 -13 20
-41 49 -63 65 -54 39 -102 38 -192 -5z m169 -23 c98 -111 125 -222 95 -389
-27 -151 -101 -234 -217 -242 -36 -2 -70 2 -92 11 -45 19 -126 91 -145 128
-47 90 18 353 107 436 47 45 131 83 180 83 40 0 52 -5 72 -27z"/>
<path d="M2710 2397 c-38 -20 -51 -35 -87 -104 -56 -109 -80 -217 -64 -289 14
-63 28 -79 81 -95 40 -12 95 -5 85 11 -4 6 7 10 24 10 41 0 84 39 111 102 18
41 24 78 28 159 4 93 2 110 -17 147 -38 75 -93 95 -161 59z m108 -39 c28 -24
42 -76 42 -161 0 -151 -52 -257 -120 -242 -24 5 -30 3 -30 -10 0 -14 -6 -16
-37 -11 -53 10 -86 37 -94 76 -22 104 72 343 145 370 23 8 70 -3 94 -22z"/>
<path d="M5055 2461 c-33 -20 -89 -107 -112 -173 -19 -56 -19 -158 1 -196 37
-72 110 -91 193 -51 136 66 136 352 1 424 -35 19 -47 19 -83 -4z m87 -48 c57
-61 71 -95 66 -177 -4 -84 -36 -160 -77 -180 -14 -7 -46 -12 -70 -11 -60 2
-97 42 -106 118 -12 91 57 252 119 277 31 13 29 13 68 -27z"/>
<path d="M596 2306 c13 -55 -24 -88 -66 -59 -19 14 -24 14 -36 1 -13 -13 -12
-20 12 -57 43 -64 108 -68 144 -9 21 35 19 62 -8 116 -20 39 -56 46 -46 8z
m44 -86 c0 -31 -22 -50 -59 -50 -20 0 -22 3 -25 30 -1 12 53 50 72 50 7 0 12
-13 12 -30z"/>
<path d="M220 2272 c-64 -64 -26 -152 65 -152 42 0 50 4 96 50 l51 51 -7 -32
c-4 -18 -20 -54 -36 -79 -35 -57 -39 -131 -10 -188 10 -20 22 -53 26 -72 15
-79 28 -90 30 -27 2 30 26 124 46 174 4 13 11 49 14 80 5 46 2 68 -14 105 -23
55 -48 72 -86 58 -48 -18 -76 -12 -111 26 l-34 35 -30 -29z m52 -42 c18 -21
35 -30 57 -30 37 0 41 -22 9 -44 -36 -25 -98 -16 -120 18 -18 26 -2 86 22 86
3 0 17 -13 32 -30z m194 -96 c17 -66 -21 -231 -50 -221 -44 14 -45 127 -2 200
32 53 43 58 52 21z"/>
<path d="M2770 1680 c0 -5 -9 -10 -19 -10 -24 0 -37 -18 -23 -32 6 -6 1 -45
-15 -111 -51 -218 -138 -439 -221 -566 -54 -82 -180 -225 -235 -266 -20 -16
-45 -40 -54 -54 -29 -45 106 69 189 160 149 162 240 344 333 669 20 69 41 129
47 135 16 16 0 -233 -23 -350 -35 -179 -134 -350 -291 -502 -129 -126 -301
-229 -478 -289 l-85 -29 -280 0 c-276 0 -281 0 -365 27 -47 14 -159 49 -250
78 -247 76 -277 87 -422 157 -59 29 -108 55 -108 59 0 12 77 -8 185 -47 287
-106 441 -147 615 -165 36 -3 92 -13 125 -21 84 -19 309 -34 375 -24 117 18
234 42 244 50 6 4 26 13 45 20 42 14 131 70 131 82 0 18 -30 8 -92 -30 -35
-22 -88 -46 -118 -54 -157 -44 -189 -49 -335 -48 -81 1 -150 3 -155 6 -9 6
-162 33 -255 45 -63 9 -212 40 -322 69 -23 6 -77 25 -120 42 -115 46 -314 109
-345 109 -132 0 230 -178 542 -268 19 -5 76 -22 125 -37 235 -70 264 -75 486
-75 126 0 242 5 300 14 92 14 218 54 249 79 8 7 44 31 80 52 107 64 201 138
275 216 132 139 209 268 252 419 34 122 57 419 37 483 -6 18 -24 24 -24 7z"/>
<path d="M4160 1299 c-19 -4 -73 -15 -120 -24 -91 -17 -256 -62 -330 -90 -25
-9 -85 -30 -135 -47 -49 -17 -94 -34 -100 -38 -5 -4 -22 -10 -37 -14 -104 -25
-286 -142 -484 -313 -154 -133 -393 -291 -517 -341 -128 -52 -407 -97 -557
-90 -70 3 -75 2 -72 -17 2 -11 6 -22 8 -25 3 -2 66 -10 142 -16 155 -14 221
-6 347 41 39 15 114 40 168 56 90 28 193 71 242 101 11 7 38 24 60 37 22 14
126 89 230 166 255 190 328 238 464 306 153 76 473 183 627 209 151 27 134 27
237 2 98 -24 132 -40 164 -74 20 -22 53 -90 53 -109 0 -15 -74 -10 -98 7 -25
18 -39 17 -172 -10 -200 -40 -257 -57 -405 -125 -168 -77 -403 -200 -525 -276
-63 -40 -130 -80 -149 -90 -97 -49 -311 -115 -376 -115 -38 0 -41 -2 -40 -27
0 -27 2 -28 55 -28 101 1 225 15 275 31 28 8 57 17 65 19 69 16 211 99 375
221 62 46 208 126 305 166 265 112 459 158 567 134 41 -9 41 -9 35 -45 -16
-102 -157 -190 -361 -226 -101 -17 -161 -12 -187 16 -19 21 -44 25 -44 9 0 -6
7 -25 16 -41 34 -67 162 -95 305 -69 75 14 192 57 217 81 12 10 25 19 29 19
13 0 114 114 134 153 11 20 25 37 32 37 17 0 188 -30 211 -37 24 -7 106 -82
106 -97 0 -6 7 -24 16 -41 9 -16 23 -57 31 -90 27 -115 -8 -177 -152 -270 -82
-52 -145 -70 -250 -73 -76 -2 -95 0 -122 17 -26 16 -33 28 -33 51 0 17 6 39
12 50 11 16 9 22 -7 35 -19 14 -22 12 -47 -17 -34 -39 -35 -74 -5 -119 48 -71
159 -106 308 -96 102 7 169 32 256 97 161 122 198 337 91 527 -33 59 -77 97
-156 137 -39 20 -57 24 -71 17 -17 -10 -26 -9 -102 10 -35 9 -36 11 -42 63 -8
78 -38 138 -99 196 -38 36 -67 55 -103 65 -58 16 -234 25 -285 14z m238 -30
c32 -6 70 -21 86 -32 107 -76 159 -206 121 -299 -10 -24 22 -36 38 -14 11 14
16 14 52 1 49 -17 77 -19 92 -4 6 6 22 9 36 5 39 -9 139 -93 168 -140 67 -106
77 -264 24 -372 -30 -61 -113 -140 -188 -180 -88 -45 -273 -57 -323 -19 -17
13 -10 14 61 14 123 0 241 48 350 144 87 75 102 133 69 261 -19 76 -51 130
-103 178 -46 42 -46 42 -181 58 -52 6 -103 14 -112 16 -13 4 -24 -8 -43 -46
-67 -132 -184 -212 -360 -246 -85 -17 -127 -17 -180 -3 -34 10 -37 13 -20 19
11 4 49 13 85 19 127 21 166 32 240 67 41 19 92 52 113 72 47 45 81 108 71
130 -4 10 -6 24 -5 34 3 26 -13 30 -118 29 -68 -1 -115 -7 -153 -20 -30 -10
-74 -22 -99 -26 -24 -4 -49 -11 -55 -16 -6 -5 -35 -18 -65 -28 -157 -55 -359
-156 -456 -227 -174 -130 -278 -190 -386 -225 -77 -24 -278 -52 -290 -40 -5 5
8 12 29 16 125 23 324 108 469 201 110 71 484 262 619 316 163 66 377 98 484
72 32 -7 64 -13 73 -14 24 0 42 42 34 79 -9 40 -77 127 -107 137 -12 4 -35 16
-50 27 -25 18 -85 30 -155 29 -33 -1 -70 -1 -90 -1 -37 0 -268 -53 -308 -71
-11 -5 -76 -30 -145 -55 -121 -45 -234 -91 -295 -122 -95 -48 -324 -205 -460
-316 -61 -49 -286 -196 -337 -220 -56 -26 -147 -51 -155 -43 -3 2 12 13 34 24
116 58 276 163 392 257 200 163 317 255 340 266 14 7 40 22 56 33 41 29 85 49
185 84 47 17 129 47 182 66 140 52 314 98 443 117 39 6 71 12 72 13 9 8 175 5
221 -5z m-1991 -885 c-3 -3 -12 -4 -19 -1 -8 3 -5 6 6 6 11 1 17 -2 13 -5z
m-95 -34 c-88 -41 -208 -63 -299 -54 -40 3 -73 9 -73 13 0 4 71 15 158 25 86
10 175 24 197 31 72 23 81 15 17 -15z"/>
</g>
</svg>
